<?xml version="1.0" encoding="UTF-8" standalone="no"?><!DOCTYPE svg PUBLIC "-//W3C//DTD SVG 1.1//EN" "http://www.w3.org/Graphics/SVG/1.1/DTD/svg11.dtd"><svg width="100%" height="100%" viewBox="0 0 2384 2413" version="1.1" xmlns="http://www.w3.org/2000/svg" xmlns:xlink="http://www.w3.org/1999/xlink" xml:space="preserve" style="fill-rule:evenodd;clip-rule:evenodd;stroke-linejoin:round;stroke-miterlimit:1.41421;"><g id="icon.svg"><g transform="matrix(33.9383,0,0,33.9383,-2768,-1811.41)"><path d="M81.8,91.948l0,-1.054l4.4,-5.502c0.313,-0.391 0.61,-0.731 0.891,-1.02l-4.793,0l0,-1.013l6.152,0l0,1.013l-4.822,5.959l-0.521,0.604l5.484,0l0,1.013l-6.791,0Z" style="fill:#4adcca;fill-rule:nonzero;"/><rect x="89.271" y="88.31" width="3.24" height="1.061" style="fill:#767676;fill-rule:nonzero;"/><path d="M95.312,91.948l-2.28,-8.589l1.166,0l1.307,5.63c0.141,0.59 0.262,1.176 0.363,1.758c0.219,-0.918 0.348,-1.447 0.387,-1.588l1.635,-5.8l1.371,0l1.23,4.347c0.309,1.078 0.532,2.092 0.668,3.041c0.11,-0.543 0.252,-1.166 0.428,-1.869l1.348,-5.519l1.142,0l-2.355,8.589l-1.096,0l-1.81,-6.544c-0.153,-0.547 -0.243,-0.883 -0.27,-1.008c-0.09,0.394 -0.174,0.73 -0.252,1.008l-1.822,6.544l-1.16,0Z" style="fill:#4adcca;fill-rule:nonzero;"/><path d="M103.749,91.948l3.299,-8.589l1.225,0l3.515,8.589l-1.295,0l-1.002,-2.601l-3.591,0l-0.944,2.601l-1.207,0ZM106.228,88.421l2.912,0l-0.897,-2.379c-0.273,-0.722 -0.476,-1.316 -0.609,-1.781c-0.109,0.551 -0.264,1.098 -0.463,1.641l-0.943,2.519Z" style="fill:#4adcca;fill-rule:nonzero;"/><path d="M114.261,91.948l-3.328,-8.589l1.23,0l2.233,6.24c0.179,0.5 0.33,0.969 0.451,1.406c0.133,-0.469 0.287,-0.937 0.463,-1.406l2.32,-6.24l1.16,0l-3.363,8.589l-1.166,0Z" style="fill:#4adcca;fill-rule:nonzero;"/><path d="M119.833,91.948l0,-8.589l6.211,0l0,1.013l-5.074,0l0,2.631l4.752,0l0,1.008l-4.752,0l0,2.924l5.273,0l0,1.013l-6.41,0Z" style="fill:#4adcca;fill-rule:nonzero;"/><path d="M133.234,88.193l-5.69,2.431l0,-1.049l4.506,-1.869l-4.506,-1.851l0,-1.049l5.69,2.402l0,0.985Z" style="fill:#767676;fill-rule:nonzero;"/><path d="M134.786,91.948l0,-8.589l1.711,0l2.033,6.082c0.188,0.566 0.325,0.99 0.411,1.271c0.097,-0.312 0.25,-0.771 0.457,-1.377l2.056,-5.976l1.53,0l0,8.589l-1.096,0l0,-7.189l-2.496,7.189l-1.026,0l-2.484,-7.312l0,7.312l-1.096,0Z" style="fill:#4adcca;fill-rule:nonzero;"/><path d="M144.841,91.948l0,-8.589l6.211,0l0,1.013l-5.074,0l0,2.631l4.752,0l0,1.008l-4.752,0l0,2.924l5.273,0l0,1.013l-6.41,0Z" style="fill:#4adcca;fill-rule:nonzero;"/></g><path d="M16.747,1500.72l0,-83.993l31.512,0c6.417,0 11.564,0.85 15.441,2.55c3.877,1.699 6.913,4.316 9.11,7.849c2.196,3.533 3.294,7.228 3.294,11.086c0,3.591 -0.974,6.971 -2.922,10.141c-1.948,3.171 -4.889,5.73 -8.823,7.678c5.08,1.489 8.985,4.029 11.716,7.62c2.731,3.59 4.097,7.83 4.097,12.719c0,3.934 -0.831,7.592 -2.492,10.972c-1.662,3.38 -3.715,5.987 -6.16,7.821c-2.444,1.833 -5.509,3.218 -9.195,4.153c-3.686,0.936 -8.203,1.404 -13.55,1.404l-32.028,0ZM27.862,1452.02l18.163,0c4.927,0 8.46,-0.325 10.599,-0.974c2.827,-0.84 4.956,-2.234 6.388,-4.182c1.433,-1.948 2.149,-4.393 2.149,-7.334c0,-2.788 -0.669,-5.242 -2.005,-7.362c-1.337,-2.12 -3.247,-3.572 -5.73,-4.355c-2.483,-0.783 -6.741,-1.174 -12.776,-1.174l-16.788,0l0,25.381ZM27.862,1490.81l20.913,0c3.59,0 6.111,-0.133 7.563,-0.401c2.559,-0.458 4.698,-1.222 6.416,-2.292c1.719,-1.069 3.133,-2.626 4.24,-4.669c1.108,-2.043 1.662,-4.402 1.662,-7.076c0,-3.132 -0.802,-5.853 -2.407,-8.164c-1.604,-2.311 -3.829,-3.934 -6.674,-4.87c-2.846,-0.936 -6.942,-1.404 -12.29,-1.404l-19.423,0l0,28.876Z" style="fill:#767676;fill-rule:nonzero;"/><path d="M150.586,1416.72l11.115,0l0,48.528c0,8.441 -0.954,15.145 -2.864,20.11c-1.91,4.966 -5.357,9.005 -10.342,12.118c-4.984,3.113 -11.525,4.67 -19.623,4.67c-7.868,0 -14.305,-1.356 -19.308,-4.068c-5.004,-2.712 -8.575,-6.637 -10.714,-11.774c-2.139,-5.138 -3.209,-12.156 -3.209,-21.056l0,-48.528l11.115,0l0,48.471c0,7.295 0.678,12.671 2.034,16.128c1.356,3.457 3.686,6.121 6.99,7.993c3.304,1.871 7.343,2.807 12.118,2.807c8.174,0 13.999,-1.852 17.475,-5.557c3.475,-3.705 5.213,-10.829 5.213,-21.371l0,-48.471Z" style="fill:#767676;fill-rule:nonzero;"/><rect x="182.098" y="1416.72" width="11.115" height="83.993" style="fill:#767676;fill-rule:nonzero;"/><path d="M212.35,1500.72l0,-83.993l11.115,0l0,74.081l41.366,0l0,9.912l-52.481,0Z" style="fill:#767676;fill-rule:nonzero;"/><path d="M278.066,1500.72l0,-83.993l28.933,0c6.532,0 11.517,0.401 14.954,1.203c4.813,1.108 8.919,3.113 12.318,6.016c4.431,3.743 7.745,8.527 9.941,14.352c2.196,5.825 3.294,12.481 3.294,19.967c0,6.379 -0.744,12.032 -2.234,16.959c-1.49,4.928 -3.4,9.005 -5.729,12.233c-2.33,3.227 -4.88,5.767 -7.649,7.62c-2.769,1.852 -6.112,3.256 -10.027,4.211c-3.915,0.955 -8.412,1.432 -13.492,1.432l-30.309,0ZM289.181,1490.81l17.933,0c5.538,0 9.883,-0.515 13.034,-1.547c3.152,-1.031 5.663,-2.482 7.535,-4.354c2.635,-2.636 4.688,-6.178 6.159,-10.628c1.47,-4.45 2.206,-9.845 2.206,-16.186c0,-8.785 -1.442,-15.536 -4.326,-20.253c-2.884,-4.717 -6.388,-7.878 -10.514,-9.482c-2.979,-1.146 -7.773,-1.719 -14.38,-1.719l-17.647,0l0,64.169Z" style="fill:#767676;fill-rule:nonzero;"/><path d="M359.023,1473.73l10.484,-0.917c0.497,4.202 1.652,7.649 3.467,10.342c1.814,2.692 4.631,4.87 8.451,6.531c3.819,1.662 8.116,2.492 12.891,2.492c4.239,0 7.983,-0.63 11.229,-1.89c3.247,-1.261 5.663,-2.989 7.248,-5.185c1.585,-2.197 2.378,-4.594 2.378,-7.191c0,-2.635 -0.764,-4.937 -2.292,-6.904c-1.528,-1.967 -4.049,-3.619 -7.563,-4.956c-2.253,-0.878 -7.238,-2.244 -14.954,-4.096c-7.715,-1.853 -13.12,-3.6 -16.214,-5.243c-4.01,-2.101 -6.999,-4.707 -8.966,-7.82c-1.967,-3.113 -2.951,-6.599 -2.951,-10.457c0,-4.239 1.203,-8.202 3.61,-11.888c2.406,-3.686 5.92,-6.484 10.542,-8.394c4.621,-1.909 9.759,-2.864 15.412,-2.864c6.226,0 11.716,1.002 16.472,3.008c4.755,2.005 8.413,4.955 10.972,8.851c2.559,3.896 3.934,8.308 4.125,13.235l-10.657,0.803c-0.573,-5.31 -2.511,-9.32 -5.815,-12.032c-3.304,-2.712 -8.184,-4.068 -14.639,-4.068c-6.722,0 -11.621,1.232 -14.696,3.695c-3.075,2.464 -4.612,5.434 -4.612,8.91c0,3.017 1.089,5.5 3.266,7.448c2.139,1.948 7.725,3.944 16.758,5.987c9.034,2.044 15.231,3.829 18.592,5.357c4.889,2.254 8.499,5.109 10.829,8.566c2.33,3.456 3.495,7.438 3.495,11.945c0,4.469 -1.28,8.68 -3.839,12.634c-2.559,3.953 -6.235,7.028 -11.029,9.224c-4.794,2.196 -10.189,3.295 -16.186,3.295c-7.601,0 -13.97,-1.108 -19.107,-3.324c-5.138,-2.215 -9.167,-5.548 -12.089,-9.997c-2.922,-4.45 -4.46,-9.483 -4.612,-15.097Z" style="fill:#767676;fill-rule:nonzero;"/><path d="M492.919,1500.72l0,-74.081l-27.673,0l0,-9.912l66.576,0l0,9.912l-27.788,0l0,74.081l-11.115,0Z" style="fill:#767676;fill-rule:nonzero;"/><path d="M543.567,1500.72l0,-83.993l11.115,0l0,34.491l43.658,0l0,-34.491l11.115,0l0,83.993l-11.115,0l0,-39.59l-43.658,0l0,39.59l-11.115,0Z" style="fill:#767676;fill-rule:nonzero;"/><path d="M628.19,1500.72l0,-83.993l60.732,0l0,9.912l-49.616,0l0,25.725l46.465,0l0,9.855l-46.465,0l0,28.589l51.564,0l0,9.912l-62.68,0Z" style="fill:#767676;fill-rule:nonzero;"/><path d="M735.044,1473.73l10.485,-0.917c0.496,4.202 1.652,7.649 3.466,10.342c1.814,2.692 4.631,4.87 8.451,6.531c3.82,1.662 8.117,2.492 12.891,2.492c4.24,0 7.983,-0.63 11.23,-1.89c3.247,-1.261 5.662,-2.989 7.248,-5.185c1.585,-2.197 2.377,-4.594 2.377,-7.191c0,-2.635 -0.764,-4.937 -2.291,-6.904c-1.528,-1.967 -4.049,-3.619 -7.563,-4.956c-2.254,-0.878 -7.238,-2.244 -14.954,-4.096c-7.716,-1.853 -13.12,-3.6 -16.214,-5.243c-4.011,-2.101 -7,-4.707 -8.967,-7.82c-1.967,-3.113 -2.95,-6.599 -2.95,-10.457c0,-4.239 1.203,-8.202 3.609,-11.888c2.406,-3.686 5.92,-6.484 10.542,-8.394c4.622,-1.909 9.759,-2.864 15.412,-2.864c6.226,0 11.717,1.002 16.472,3.008c4.756,2.005 8.413,4.955 10.972,8.851c2.559,3.896 3.934,8.308 4.125,13.235l-10.656,0.803c-0.573,-5.31 -2.512,-9.32 -5.816,-12.032c-3.304,-2.712 -8.183,-4.068 -14.638,-4.068c-6.723,0 -11.622,1.232 -14.696,3.695c-3.075,2.464 -4.612,5.434 -4.612,8.91c0,3.017 1.088,5.5 3.265,7.448c2.139,1.948 7.725,3.944 16.759,5.987c9.033,2.044 15.231,3.829 18.592,5.357c4.889,2.254 8.498,5.109 10.828,8.566c2.33,3.456 3.495,7.438 3.495,11.945c0,4.469 -1.279,8.68 -3.838,12.634c-2.56,3.953 -6.236,7.028 -11.03,9.224c-4.793,2.196 -10.188,3.295 -16.185,3.295c-7.601,0 -13.97,-1.108 -19.108,-3.324c-5.137,-2.215 -9.167,-5.548 -12.089,-9.997c-2.922,-4.45 -4.459,-9.483 -4.612,-15.097Z" style="fill:#767676;fill-rule:nonzero;"/><path d="M816.746,1500.72l0,-83.993l16.729,0l19.881,59.471c1.834,5.539 3.171,9.683 4.011,12.433c0.955,-3.056 2.445,-7.544 4.469,-13.464l20.11,-58.44l14.954,0l0,83.993l-10.714,0l0,-70.3l-24.407,70.3l-10.027,0l-24.292,-71.503l0,71.503l-10.714,0Z" style="fill:#767676;fill-rule:nonzero;"/><path d="M905.609,1500.72l32.256,-83.993l11.975,0l34.376,83.993l-12.662,0l-9.797,-25.438l-35.121,0l-9.225,25.438l-11.802,0ZM929.844,1466.23l28.475,0l-8.766,-23.261c-2.673,-7.067 -4.66,-12.872 -5.958,-17.418c-1.07,5.386 -2.578,10.733 -4.526,16.043l-9.225,24.636Z" style="fill:#767676;fill-rule:nonzero;"/><path d="M993.269,1500.72l0,-83.993l37.241,0c7.486,0 13.178,0.754 17.074,2.263c3.896,1.509 7.009,4.173 9.339,7.993c2.33,3.819 3.495,8.04 3.495,12.662c0,5.958 -1.929,10.981 -5.787,15.068c-3.858,4.087 -9.817,6.684 -17.876,7.792c2.941,1.413 5.176,2.807 6.703,4.182c3.247,2.98 6.322,6.704 9.225,11.173l14.61,22.86l-13.98,0l-11.115,-17.475c-3.247,-5.041 -5.92,-8.899 -8.021,-11.573c-2.101,-2.674 -3.982,-4.545 -5.644,-5.615c-1.661,-1.069 -3.351,-1.814 -5.07,-2.234c-1.261,-0.268 -3.323,-0.401 -6.188,-0.401l-12.891,0l0,37.298l-11.115,0ZM1004.38,1453.79l23.892,0c5.08,0 9.052,-0.525 11.917,-1.575c2.864,-1.051 5.042,-2.731 6.531,-5.042c1.49,-2.311 2.235,-4.822 2.235,-7.534c0,-3.973 -1.442,-7.239 -4.326,-9.798c-2.884,-2.559 -7.439,-3.838 -13.665,-3.838l-26.584,0l0,27.787Z" style="fill:#767676;fill-rule:nonzero;"/><path d="M1097.09,1500.72l0,-74.081l-27.673,0l0,-9.912l66.576,0l0,9.912l-27.788,0l0,74.081l-11.115,0Z" style="fill:#767676;fill-rule:nonzero;"/><path d="M1178.21,1500.72l0,-83.993l11.115,0l0,34.491l43.659,0l0,-34.491l11.115,0l0,83.993l-11.115,0l0,-39.59l-43.659,0l0,39.59l-11.115,0Z" style="fill:#767676;fill-rule:nonzero;"/><path d="M1259.23,1459.81c0,-13.941 3.743,-24.856 11.23,-32.743c7.486,-7.888 17.15,-11.832 28.991,-11.832c7.754,0 14.743,1.853 20.969,5.558c6.226,3.705 10.972,8.871 14.238,15.498c3.266,6.627 4.899,14.142 4.899,22.545c0,8.518 -1.719,16.138 -5.157,22.861c-3.437,6.722 -8.307,11.812 -14.61,15.268c-6.302,3.457 -13.101,5.186 -20.397,5.186c-7.906,0 -14.972,-1.91 -21.198,-5.73c-6.226,-3.819 -10.944,-9.033 -14.152,-15.641c-3.209,-6.608 -4.813,-13.598 -4.813,-20.97ZM1270.69,1459.98c0,10.122 2.722,18.095 8.164,23.92c5.443,5.825 12.271,8.738 20.483,8.738c8.365,0 15.25,-2.941 20.655,-8.824c5.404,-5.882 8.107,-14.228 8.107,-25.037c0,-6.837 -1.156,-12.805 -3.466,-17.905c-2.311,-5.099 -5.692,-9.052 -10.142,-11.859c-4.449,-2.808 -9.444,-4.212 -14.982,-4.212c-7.868,0 -14.639,2.703 -20.311,8.108c-5.672,5.404 -8.508,14.428 -8.508,27.071Z" style="fill:#767676;fill-rule:nonzero;"/><path d="M1353.53,1500.72l0,-83.993l16.73,0l19.881,59.471c1.834,5.539 3.171,9.683 4.011,12.433c0.955,-3.056 2.445,-7.544 4.469,-13.464l20.11,-58.44l14.954,0l0,83.993l-10.714,0l0,-70.3l-24.407,70.3l-10.027,0l-24.293,-71.503l0,71.503l-10.714,0Z" style="fill:#767676;fill-rule:nonzero;"/><path d="M1451.85,1500.72l0,-83.993l60.732,0l0,9.912l-49.617,0l0,25.725l46.466,0l0,9.855l-46.466,0l0,28.589l51.565,0l0,9.912l-62.68,0Z" style="fill:#767676;fill-rule:nonzero;"/></g></svg>